#!OML:ASF X:\für Bonn\!DataBase\2005_08_10_Bjorn_Final\c3d\bjorn.ASF
:FULLY-SPECIFIED
:DEGREES
395
root -1.25689 2.11716 20.0623 -428.239 -173.175 8.22853
lowerback 42.9867 7.10598 6.99709
upperback 26.9848 -1.09737 2.40595
thorax 10.6088 -5.7012 -1.7122
lowerneck 4.74618 -4.14302 -3.92235
upperneck -0.822465 -5.71697 1.94823
head -0.87826 -2.87513 1.37909
rclavicle 2.8625e-014 -4.77083e-014
rhumerus -169.712 -178.693 110.318
rradius 44.7188
rwrist -20.2765
rhand -10.6253 8.90179
rfingers 7.12502
rthumb 15.3815 -20.506
lclavicle 2.8625e-014 -4.77083e-014
lhumerus -341.304 -25.5735 -301.974
lradius 45.3819
lwrist -4.18275
lhand -46.5517 -26.265
lfingers 7.12502
lthumb -19.2763 2.79968
rfemur -262.491 -147.225 192.406
rtibia 123.431
rfoot 26.3369 10.1889
rtoes -6.95388
lfemur -78.7015 11.6626 -28.8648
ltibia 116.347
lfoot 22.4076 7.90846
ltoes -8.91217
396
root -1.25562 2.10818 20.0772 -428.28 -173.065 8.2228
lowerback 42.4833 7.17798 6.66969
upperback 26.9327 -0.970148 2.34903
thorax 10.6497 -5.60056 -1.64368
lowerneck 4.948 -4.57671 -4.27724
upperneck -0.701223 -6.31175 2.54785
head -0.827973 -3.18147 1.64219
rclavicle -1.90833e-014 9.54166e-015
rhumerus -169.282 -178.952 110.053
rradius 44.3359
rwrist -20.0878
rhand -10.2828 8.97116
rfingers 7.12502
rthumb 15.7113 -20.411
lclavicle -1.90833e-014 9.54166e-015
lhumerus -341.143 -25.6656 -301.463
lradius 45.4047
lwrist -4.18398
lhand -46.4523 -25.8394
lfingers 7.12502
lthumb -19.1807 3.23476
rfemur -262.413 -147.468 192.214
rtibia 123.214
rfoot 26.4848 10.3385
rtoes -6.81755
lfemur -78.6381 11.5672 -28.9488
ltibia 116.138
lfoot 22.6286 7.81899
ltoes -9.08333
397
root -1.25506 2.10015 20.0912 -428.295 -172.978 8.22238
lowerback 41.963 7.22662 6.39947
upperback 26.8765 -0.845256 2.26329
thorax 10.6968 -5.48605 -1.63358
lowerneck 5.20227 -4.97881 -4.48989
upperneck -0.614137 -6.86282 3.05707
head -0.800454 -3.46595 1.85554
rclavicle -3.45885e-014 -3.02153e-014
rhumerus -168.91 -179.079 109.7
rradius 43.9816
rwrist -19.7521
rhand -9.92795 9.01761
rfingers 7.12502
rthumb 16.053 -20.3374
lclavicle -3.45885e-014 -3.02153e-014
lhumerus -341.014 -25.7417 -300.946
lradius 45.412
lwrist -4.28204
lhand -46.3309 -25.5882
lfingers 7.12502
lthumb -19.0639 3.49748
rfemur -262.379 -147.723 192.062
rtibia 123.001
rfoot 26.62 10.4905
rtoes -6.78337
lfemur -78.5975 11.4887 -29.004
ltibia 115.922
lfoot 22.855 7.73081
ltoes -9.01761
398
root -1.25439 2.09214 20.1061 -428.321 -172.899 8.22119
lowerback 41.4624 7.27749 6.15991
upperback 26.8344 -0.719831 2.18106
thorax 10.7623 -5.37401 -1.63641
lowerneck 5.37626 -5.3621 -4.62074
upperneck -0.45448 -7.38596 3.49086
head -0.738435 -3.73647 2.02626
rclavicle 1.47101e-014 3.18055e-014
rhumerus -168.553 -179.138 109.363
rradius 43.6431
rwrist -19.4354
rhand -9.46176 9.18585
rfingers 7.12502
rthumb 16.5019 -20.1324
lclavicle 1.47101e-014 3.18055e-014
lhumerus -340.893 -25.8242 -300.435
lradius 45.4257
lwrist -4.4139
lhand -46.2126 -25.5071
lfingers 7.12502
lthumb -18.9501 3.58982
rfemur -262.319 -147.984 191.913
rtibia 122.767
rfoot 26.7599 10.6362
rtoes -7.05678
lfemur -78.5523 11.417 -29.0536
ltibia 115.697
lfoot 23.1201 7.54111
ltoes -9.32751
399
root -1.25383 2.08415 20.1208 -428.324 -172.772 8.22938
lowerback 40.9479 7.32683 5.8856
upperback 26.7918 -0.602377 2.10703
thorax 10.8316 -5.26998 -1.60939
lowerneck 5.50804 -5.72333 -4.7572
upperneck -0.268639 -7.88185 3.92971
head -0.658256 -3.99382 2.19705
rclavicle 1.98785e-015 5.725e-014
rhumerus -168.199 -179.146 109.039
rradius 43.283
rwrist -19.1411
rhand -8.87082 9.4831
rfingers 7.12502
rthumb 17.0708 -19.7869
lclavicle 1.98785e-015 5.725e-014
lhumerus -340.805 -25.9406 -299.915
lradius 45.4445
lwrist -4.50877
lhand -46.1744 -25.6172
lfingers 7.12502
lthumb -18.9135 3.4833
rfemur -262.296 -148.184 191.721
rtibia 122.534
rfoot 26.9348 10.7698
rtoes -7.17935
lfemur -78.5139 11.289 -29.1319
ltibia 115.451
lfoot 23.3236 7.47333
ltoes -9.25701
400
root -1.25312 2.07595 20.136 -428.352 -172.627 8.23567
lowerback 40.4875 7.3812 5.58457
upperback 26.7339 -0.485666 2.05241
thorax 10.8679 -5.17606 -1.54255
lowerneck 5.69332 -6.04647 -4.92052
upperneck -0.109002 -8.33397 4.36169
head -0.593556 -4.23009 2.37309
rclavicle 1.15295e-014 1.27222e-014
rhumerus -167.891 -179.197 108.799
rradius 42.9461
rwrist -18.881
rhand -8.26389 9.8466
rfingers 7.12502
rthumb 17.6549 -19.3719
lclavicle 1.15295e-014 1.27222e-014
lhumerus -340.779 -26.0478 -299.347
lradius 45.4238
lwrist -4.59674
lhand -46.1863 -25.8941
lfingers 7.12502
lthumb -18.9249 3.20524
rfemur -262.217 -148.374 191.495
rtibia 122.275
rfoot 27.0869 10.8632
rtoes -7.31511
lfemur -78.4383 11.1608 -29.2234
ltibia 115.192
lfoot 23.5248 7.36949
ltoes -9.19359
401
root -1.25245 2.06718 20.1517 -428.403 -172.447 8.23446
lowerback 40.0695 7.42394 5.22985
upperback 26.6554 -0.394133 1.9894
thorax 10.8638 -5.10258 -1.44577
lowerneck 5.93187 -6.313 -5.15452
upperneck 0.031979 -8.72069 4.81679
head -0.540211 -4.43526 2.57212
rclavicle -3.49861e-014 6.04305e-014
rhumerus -167.625 -179.323 108.558
rradius 42.6302
rwrist -18.6619
rhand -7.6121 10.1861
rfingers 7.12502
rthumb 18.282 -18.9748
lclavicle -3.49861e-014 6.04305e-014
lhumerus -340.89 -26.1185 -298.752
lradius 45.4645
lwrist -4.59309
lhand -46.092 -26.3224
lfingers 7.12502
lthumb -18.8342 2.78579
rfemur -262.113 -148.543 191.203
rtibia 122.009
rfoot 27.2633 10.9968
rtoes -7.69051
lfemur -78.3212 11.0269 -29.3348
ltibia 114.909
lfoot 23.7607 7.24063
ltoes -9.07047
402
root -1.2517 2.06003 20.1685 -428.457 -172.272 8.2253
lowerback 39.6561 7.47733 4.92054
upperback 26.6026 -0.289111 1.9191
thorax 10.8966 -5.02125 -1.38673
lowerneck 6.0755 -6.59833 -5.29456
upperneck 0.191919 -9.1255 5.2117
head -0.467086 -4.6481 2.73074
rclavicle 5.4467e-014 -5.725e-014
rhumerus -167.351 -179.379 108.32
rradius 42.2992
rwrist -18.3939
rhand -7.01528 10.5407
rfingers 7.12502
rthumb 18.8561 -18.5654
lclavicle 5.4467e-014 -5.725e-014
lhumerus -340.923 -26.2623 -298.254
lradius 45.4968
lwrist -4.45697
lhand -46.017 -26.6742
lfingers 7.12502
lthumb -18.762 2.441
rfemur -261.967 -148.719 190.891
rtibia 121.726
rfoot 27.4352 11.1018
rtoes -7.90484
lfemur -78.1653 10.9005 -29.4288
ltibia 114.601
lfoot 23.9611 7.09629
ltoes -8.92636
403
root -1.2498 2.0523 20.186 -428.527 -172.071 8.23564
lowerback 39.2528 7.52048 4.59275
upperback 26.5538 -0.205908 1.85679
thorax 10.9321 -4.9575 -1.30381
lowerneck 6.17616 -6.8521 -5.45074
upperneck 0.386429 -9.49177 5.57783
head -0.375749 -4.8413 2.87955
rclavicle -4.85035e-014 6.04305e-014
rhumerus -167.09 -179.481 108.12
rradius 42.0224
rwrist -18.1738
rhand -6.41478 10.7841
rfingers 7.12502
rthumb 19.4336 -18.2647
lclavicle -4.85035e-014 6.04305e-014
lhumerus -341.01 -26.3592 -297.733
lradius 45.5362
lwrist -4.43182
lhand -45.9595 -26.9617
lfingers 7.12502
lthumb -18.7067 2.15885
rfemur -261.806 -148.857 190.55
rtibia 121.437
rfoot 27.6465 11.1913
rtoes -8.23108
lfemur -77.9928 10.7638 -29.5308
ltibia 114.278
lfoot 24.1419 6.99537
ltoes -8.6836
404
root -1.24782 2.04467 20.2028 -428.598 -171.817 8.25005
lowerback 38.8455 7.56444 4.25991
upperback 26.5141 -0.120707 1.76868
thorax 10.9819 -4.89001 -1.24693
lowerneck 6.22122 -7.10991 -5.52247
upperneck 0.61043 -9.85974 5.92217
head -0.268059 -5.03481 3.00242
rclavicle -1.98785e-015 5.88403e-014
rhumerus -166.916 -179.626 107.965
rradius 41.8243
rwrist -18.0589
rhand -5.89593 10.9825
rfingers 7.12502
rthumb 19.9324 -18.0153
lclavicle -1.98785e-015 5.88403e-014
lhumerus -341.072 -26.5081 -297.3
lradius 45.6043
lwrist -4.43484
lhand -45.8409 -27.0129
lfingers 7.12502
lthumb -18.5926 2.11858
rfemur -261.635 -148.934 190.145
rtibia 121.142
rfoot 27.8813 11.2721
rtoes -8.29831
lfemur -77.7957 10.5824 -29.6748
ltibia 113.927
lfoot 24.3245 6.86379
ltoes -8.55048
405
root -1.24617 2.03756 20.2202 -428.67 -171.613 8.26718
lowerback 38.4137 7.61781 3.92453
upperback 26.4761 -0.0255714 1.7202
thorax 11.0442 -4.8243 -1.14852
lowerneck 6.30157 -7.34798 -5.60695
upperneck 0.788312 -10.2031 6.19133
head -0.184149 -5.21495 3.10552
rclavicle -2.78299e-014 0
rhumerus -166.733 -179.881 107.922
rradius 41.6297
rwrist -17.9868
rhand -5.48756 11.0706
rfingers 7.12502
rthumb 20.3249 -17.8859
lclavicle -2.78299e-014 0
lhumerus -341.19 -26.5717 -296.783
lradius 45.6423
lwrist -4.55041
lhand -45.6623 -26.9306
lfingers 7.12502
lthumb -18.4208 2.2172
rfemur -261.442 -149.053 189.789
rtibia 120.836
rfoot 28.1008 11.3389
rtoes -8.51336
lfemur -77.6057 10.4325 -29.7604
ltibia 113.575
lfoot 24.5098 6.77922
ltoes -8.12376
